<svg width="10" height="20" viewBox="0 0 10 20" fill="none" xmlns="http://www.w3.org/2000/svg">
<path d="M9.49658 9.98627C9.49718 9.68083 9.39067 9.38483 9.19554 9.14964L2.65131 1.30623C2.42915 1.03927 2.1099 0.871386 1.76381 0.839516C1.41771 0.807646 1.07312 0.914397 0.805831 1.13629C0.538543 1.35817 0.370456 1.67702 0.338546 2.02269C0.306637 2.36836 0.413519 2.71253 0.635681 2.97949L6.49932 9.98627L0.845098 16.9931C0.736377 17.1268 0.655187 17.2806 0.606195 17.4458C0.557202 17.6109 0.541373 17.7841 0.559617 17.9554C0.577862 18.1267 0.629819 18.2927 0.712504 18.4439C0.795189 18.595 0.906971 18.7284 1.04142 18.8363C1.176 18.956 1.33388 19.0466 1.50518 19.1026C1.67647 19.1585 1.85749 19.1785 2.03688 19.1614C2.21628 19.1442 2.39018 19.0902 2.54771 19.0027C2.70524 18.9153 2.84299 18.7963 2.95234 18.6532L9.27407 10.8098C9.43836 10.5679 9.5167 10.2779 9.49658 9.98627Z" fill="white"/>
</svg>
