<svg width="13" height="24" viewBox="0 0 13 24" fill="none" xmlns="http://www.w3.org/2000/svg">
<path d="M9.49223 5.53725H11.5709C12.016 5.53725 12.3765 5.17672 12.3765 4.73161V1.39334C12.3765 0.948236 12.016 0.587703 11.5709 0.587703H8.71775C8.69104 0.583252 8.64208 0.583252 8.57531 0.583252C8.03674 0.583252 6.1673 0.690077 4.68065 2.05654C3.06048 3.54764 3.21626 5.3325 3.28303 5.7687V7.94081H1.21775C0.772643 7.94081 0.412109 8.30134 0.412109 8.74644V12.334C0.412109 12.7791 0.772643 13.1396 1.21775 13.1396H3.16285V22.558C3.16285 23.0031 3.52338 23.3636 3.96849 23.3636H8.03674C8.48184 23.3636 8.84237 23.0031 8.84237 22.558V13.193H11.1436C11.5531 13.193 11.9002 12.8859 11.9447 12.4764L12.3631 8.83992C12.3899 8.61291 12.3186 8.38146 12.1628 8.21232C12.0115 8.03873 11.789 7.94081 11.562 7.94081H8.83792V6.11588C8.84682 5.742 8.9492 5.53725 9.49223 5.53725ZM8.39282 8.84882H11.4551L11.059 12.2806H8.39282C8.14356 12.2806 7.93881 12.4853 7.93881 12.7346V22.4601H4.07531V12.6901C4.07531 12.4408 3.87057 12.2361 3.62131 12.2361H1.32012V8.84882H3.73703C3.98629 8.84882 4.19104 8.64407 4.19104 8.39481V5.72864C4.19104 5.70194 4.18659 5.67523 4.18659 5.65298C4.13763 5.37701 3.96849 3.94378 5.2949 2.7242C6.53674 1.58028 8.11686 1.49126 8.57531 1.49126C8.63763 1.49126 8.67769 1.49126 8.68214 1.49126C8.69104 1.49126 8.69549 1.49126 8.70439 1.49126H11.464V4.62479H9.48777C8.513 4.62479 7.93436 5.18117 7.93436 6.11588V8.39481C7.93881 8.64852 8.13911 8.84882 8.39282 8.84882Z" fill="#FBBE07"/>
<path d="M8.03689 23.4526H3.96864C3.47458 23.4526 3.07398 23.052 3.07398 22.5579V13.2286H1.2179C0.723836 13.2286 0.323242 12.828 0.323242 12.3339V8.74637C0.323242 8.25231 0.723836 7.85171 1.2179 7.85171H3.19416V5.77753C3.11404 5.26121 2.99832 3.48969 4.61849 1.99415C6.1274 0.605421 8.02799 0.498596 8.57547 0.498596C8.64223 0.498596 8.69119 0.498596 8.72235 0.503047H11.571C12.0651 0.503047 12.4657 0.903641 12.4657 1.39771V4.73598C12.4657 5.23005 12.0651 5.63064 11.571 5.63064H9.49238C9.01612 5.63064 8.936 5.77753 8.9271 6.12026V7.85616H11.5621C11.8203 7.85616 12.0606 7.96744 12.2298 8.15883C12.3989 8.34578 12.4835 8.59949 12.4523 8.8532L12.0339 12.4897C11.985 12.9437 11.6022 13.2864 11.1437 13.2864H8.93155V22.5624C8.93155 23.052 8.53096 23.4526 8.03689 23.4526ZM1.2179 8.02975C0.821759 8.02975 0.501284 8.35023 0.501284 8.74637V12.3339C0.501284 12.73 0.821759 13.0505 1.2179 13.0505H3.25203V22.5579C3.25203 22.9541 3.5725 23.2746 3.96864 23.2746H8.03689C8.43303 23.2746 8.75351 22.9541 8.75351 22.5579V13.1039H11.1437C11.5087 13.1039 11.8158 12.828 11.8559 12.4674L12.2743 8.83094C12.2965 8.62619 12.2342 8.42144 12.0962 8.27456C11.9627 8.11877 11.7669 8.02975 11.5621 8.02975H8.74906V6.11581C8.75796 5.70186 8.88704 5.44815 9.49238 5.44815H11.571C11.9672 5.44815 12.2876 5.12768 12.2876 4.73153V1.39325C12.2876 0.997112 11.9672 0.676638 11.571 0.676638H8.709H8.7001C8.68229 0.672187 8.62888 0.672187 8.57102 0.672187C8.04134 0.672187 6.19861 0.774561 4.73867 2.12323C3.17191 3.56536 3.29209 5.27011 3.36775 5.75527V5.76863V8.02975H1.2179ZM8.02799 22.549H3.98645V12.69C3.98645 12.4897 3.82176 12.325 3.62146 12.325H1.23125V8.75972H3.73719C3.93749 8.75972 4.10217 8.59504 4.10217 8.39474V5.72857C4.10217 5.71521 4.10217 5.70631 4.10217 5.69296C4.10217 5.67961 4.10217 5.6707 4.09772 5.65735C4.04431 5.35913 3.87962 3.89919 5.23274 2.6529C6.49683 1.48673 8.10811 1.39771 8.57547 1.39771H11.5532V4.70928H9.48793C8.55766 4.70928 8.02354 5.22115 8.02354 6.11136V8.39029C8.02799 8.59503 8.18823 8.75527 8.39298 8.75527H11.5532L11.1348 12.3651H8.38852C8.18823 12.3651 8.02354 12.5298 8.02354 12.73V22.549H8.02799ZM4.16449 22.371H7.84995V12.7345C7.84995 12.4363 8.09476 12.1915 8.39298 12.1915H10.979L11.3529 8.93777H8.38852C8.08585 8.93777 7.8455 8.70186 7.84105 8.39474V6.11581C7.84105 5.12768 8.45529 4.53569 9.48348 4.53569H11.3707V1.5802H8.57547C8.12591 1.5802 6.5725 1.66922 5.35737 2.79088C4.05766 3.98376 4.23125 5.37248 4.27576 5.63955V5.6529C4.27576 5.6618 4.27576 5.6707 4.27576 5.67961C4.27576 5.69741 4.28022 5.71076 4.28022 5.72857V8.39474C4.28022 8.69296 4.03541 8.93777 3.73719 8.93777H1.4093V12.147H3.62146C3.91968 12.147 4.16449 12.3918 4.16449 12.69V22.371Z" fill="#FBBE07"/>
</svg>
