<svg width="9" height="7" viewBox="0 0 9 7" fill="none" xmlns="http://www.w3.org/2000/svg">
<path d="M4.85118 6.00015L8.85622 1.99504C8.94893 1.90241 9 1.77875 9 1.6469C9 1.51504 8.94893 1.39139 8.85622 1.29875L8.56135 1.0038C8.3692 0.811878 8.05691 0.811878 7.86506 1.0038L4.50187 4.367L1.13495 1.00007C1.04224 0.907438 0.918654 0.856292 0.786876 0.856292C0.654949 0.856292 0.531365 0.907438 0.438585 1.00007L0.143784 1.29502C0.0510769 1.38773 3.78607e-06 1.51131 3.7803e-06 1.64316C3.77454e-06 1.77502 0.0510768 1.89867 0.143784 1.99131L4.15248 6.00015C4.24548 6.09301 4.36965 6.14401 4.50165 6.14371C4.63416 6.14401 4.75826 6.09301 4.85118 6.00015Z" fill="white"/>
</svg>
