<svg width="13" height="24" viewBox="0 0 13 24" fill="none" xmlns="http://www.w3.org/2000/svg">
<path d="M9.49256 5.53725H11.5712C12.0163 5.53725 12.3768 5.17672 12.3768 4.73161V1.39334C12.3768 0.948236 12.0163 0.587703 11.5712 0.587703H8.71808C8.69137 0.583252 8.64241 0.583252 8.57565 0.583252C8.03707 0.583252 6.16764 0.690077 4.68099 2.05654C3.06081 3.54764 3.2166 5.3325 3.28336 5.7687V7.94081H1.21808C0.772979 7.94081 0.412445 8.30134 0.412445 8.74644V12.334C0.412445 12.7791 0.772979 13.1396 1.21808 13.1396H3.16319V22.558C3.16319 23.0031 3.52372 23.3636 3.96882 23.3636H8.03707C8.48218 23.3636 8.84271 23.0031 8.84271 22.558V13.193H11.1439C11.5534 13.193 11.9006 12.8859 11.9451 12.4764L12.3635 8.83992C12.3902 8.61291 12.319 8.38146 12.1632 8.21232C12.0118 8.03873 11.7893 7.94081 11.5623 7.94081H8.83826V6.11588C8.84716 5.742 8.94954 5.53725 9.49256 5.53725ZM8.39316 8.84882H11.4555L11.0593 12.2806H8.39316C8.1439 12.2806 7.93915 12.4853 7.93915 12.7346V22.4601H4.07565V12.6901C4.07565 12.4408 3.8709 12.2361 3.62164 12.2361H1.32046V8.84882H3.73737C3.98663 8.84882 4.19138 8.64407 4.19138 8.39481V5.72864C4.19138 5.70194 4.18692 5.67523 4.18692 5.65298C4.13796 5.37701 3.96882 3.94378 5.29523 2.7242C6.53707 1.58028 8.11719 1.49126 8.57565 1.49126C8.63796 1.49126 8.67802 1.49126 8.68247 1.49126C8.69137 1.49126 8.69583 1.49126 8.70473 1.49126H11.4644V4.62479H9.48811C8.51333 4.62479 7.9347 5.18117 7.9347 6.11588V8.39481C7.93915 8.64852 8.13945 8.84882 8.39316 8.84882Z" fill="#FBBE07"/>
<path d="M8.03708 23.4525H3.96883C3.47476 23.4525 3.07417 23.0519 3.07417 22.5579V13.2285H1.21808C0.724019 13.2285 0.323425 12.8279 0.323425 12.3338V8.74631C0.323425 8.25224 0.724019 7.85165 1.21808 7.85165H3.19435V5.77747C3.11423 5.26115 2.9985 3.48963 4.61868 1.99408C6.12758 0.60536 8.02817 0.498535 8.57565 0.498535C8.64242 0.498535 8.69138 0.498535 8.72254 0.502986H11.5712C12.0653 0.502986 12.4659 0.90358 12.4659 1.39764V4.73592C12.4659 5.22999 12.0653 5.63058 11.5712 5.63058H9.49257C9.0163 5.63058 8.93618 5.77747 8.92728 6.1202V7.8561H11.5623C11.8205 7.8561 12.0608 7.96738 12.23 8.15877C12.3991 8.34572 12.4837 8.59942 12.4525 8.85313L12.0341 12.4896C11.9851 12.9436 11.6024 13.2864 11.1439 13.2864H8.93174V22.5623C8.93174 23.0519 8.53114 23.4525 8.03708 23.4525ZM1.21808 8.02969C0.821942 8.02969 0.501467 8.35017 0.501467 8.74631V12.3338C0.501467 12.73 0.821942 13.0505 1.21808 13.0505H3.25221V22.5579C3.25221 22.954 3.57268 23.2745 3.96883 23.2745H8.03708C8.43322 23.2745 8.75369 22.954 8.75369 22.5579V13.1039H11.1439C11.5089 13.1039 11.816 12.8279 11.8561 12.4674L12.2745 8.83088C12.2967 8.62613 12.2344 8.42138 12.0964 8.2745C11.9629 8.11871 11.767 8.02969 11.5623 8.02969H8.74924V6.11575C8.75814 5.7018 8.88722 5.44809 9.49257 5.44809H11.5712C11.9673 5.44809 12.2878 5.12762 12.2878 4.73147V1.39319C12.2878 0.997051 11.9673 0.676577 11.5712 0.676577H8.70918H8.70028C8.68248 0.672126 8.62906 0.672126 8.5712 0.672126C8.04153 0.672126 6.1988 0.7745 4.73886 2.12316C3.17209 3.5653 3.29227 5.27005 3.36794 5.75521V5.76856V8.02969H1.21808ZM8.02817 22.549H3.98663V12.6899C3.98663 12.4896 3.82194 12.3249 3.62165 12.3249H1.23144V8.75966H3.73737C3.93767 8.75966 4.10236 8.59497 4.10236 8.39468V5.72851C4.10236 5.71515 4.10236 5.70625 4.10236 5.6929C4.10236 5.67954 4.10236 5.67064 4.09791 5.65729C4.04449 5.35907 3.87981 3.89913 5.23292 2.65284C6.49702 1.48667 8.10829 1.39764 8.57565 1.39764H11.5534V4.70922H9.48811C8.55785 4.70922 8.02372 5.22109 8.02372 6.11129V8.39023C8.02817 8.59497 8.18841 8.75521 8.39316 8.75521H11.5534L11.135 12.365H8.38871C8.18841 12.365 8.02372 12.5297 8.02372 12.73V22.549H8.02817ZM4.16467 22.3709H7.85013V12.7344C7.85013 12.4362 8.09494 12.1914 8.39316 12.1914H10.9792L11.3531 8.9377H8.38871C8.08604 8.9377 7.84568 8.7018 7.84123 8.39468V6.11575C7.84123 5.12761 8.45547 4.53563 9.48366 4.53563H11.3709V1.58014H8.57565C8.1261 1.58014 6.57268 1.66916 5.35755 2.79082C4.05785 3.9837 4.23144 5.37242 4.27595 5.63948V5.65284C4.27595 5.66174 4.27595 5.67064 4.27595 5.67954C4.27595 5.69735 4.2804 5.7107 4.2804 5.72851V8.39468C4.2804 8.6929 4.03559 8.9377 3.73737 8.9377H1.40948V12.1469H3.62165C3.91986 12.1469 4.16467 12.3917 4.16467 12.6899V22.3709Z" fill="#FBBE07"/>
</svg>
