<svg width="18" height="18" viewBox="0 0 18 18" fill="none" xmlns="http://www.w3.org/2000/svg">
<path d="M17.4528 13.1137L15.1335 10.7944C14.7359 10.3968 14.1848 10.2015 13.6233 10.2608C13.0618 10.3201 12.563 10.627 12.2561 11.0978L11.6702 12.0011C11.6248 12.0709 11.5586 12.1162 11.4783 12.1302C11.3981 12.1476 11.3144 12.1302 11.2447 12.0814C10.2367 11.3803 9.26365 10.5607 8.34639 9.64347C7.42912 8.7262 6.60951 7.74965 5.90848 6.74519C5.86314 6.67544 5.84571 6.59173 5.86314 6.51151C5.88058 6.4313 5.92592 6.36503 5.99568 6.31969L6.89899 5.73376C7.37332 5.42684 7.68024 4.9281 7.73953 4.37007C7.79882 3.80855 7.60351 3.25749 7.20591 2.8599L4.89008 0.544065C4.5134 0.170882 3.99722 -0.027917 3.47058 0.00347232C2.94045 0.0313739 2.44869 0.289463 2.12084 0.701012C0.9699 2.14143 -0.480983 4.29334 0.160754 6.33713C0.931536 8.79247 2.47659 11.2234 4.6285 13.3718C5.95731 14.7041 7.39773 15.8027 8.90442 16.6398C9.023 16.7061 9.15902 16.72 9.28807 16.6851C9.41711 16.6502 9.52523 16.5631 9.58801 16.448C9.65428 16.3294 9.66823 16.1934 9.63335 16.0643C9.59847 15.9353 9.51128 15.8272 9.39619 15.7644C7.97669 14.9762 6.613 13.9333 5.34348 12.6638C3.29968 10.62 1.84183 8.3286 1.11987 6.0337C0.62113 4.45377 1.90112 2.59134 2.90906 1.3288C3.05903 1.14046 3.28573 1.02188 3.52639 1.00793C3.76704 0.993978 4.0042 1.08466 4.1751 1.25556L6.49442 3.57487C6.67578 3.75623 6.76646 4.01084 6.73856 4.26544C6.71066 4.52004 6.57115 4.75023 6.35491 4.88974L5.4516 5.47567C5.15165 5.67098 4.94588 5.97092 4.87613 6.31969C4.80637 6.67195 4.8831 7.02769 5.08888 7.32415C5.82827 8.38441 6.68624 9.40281 7.63838 10.3584C8.58355 11.3036 9.60545 12.1616 10.6727 12.908C10.9657 13.1137 11.3214 13.1905 11.6737 13.1207C12.0259 13.0509 12.3259 12.8487 12.5212 12.5452L13.1071 11.6419C13.2466 11.4257 13.4768 11.2862 13.7314 11.2583C13.9895 11.2304 14.2406 11.321 14.422 11.5024L16.7413 13.8217C16.9122 13.9926 17.0029 14.2298 16.9889 14.4704C16.975 14.7111 16.8599 14.9378 16.668 15.0878C15.4055 16.0957 13.5431 17.3757 11.9631 16.8769C11.7434 16.8072 11.4574 16.713 11.1749 16.5979C10.9168 16.4968 10.6239 16.6258 10.5227 16.8839C10.4216 17.142 10.5506 17.435 10.8087 17.5361C11.1226 17.6582 11.4016 17.7558 11.6562 17.8326C11.9806 17.9372 12.3328 17.9895 12.699 17.9895C14.4255 17.9895 16.1449 16.7793 17.2889 15.8725C17.7039 15.5412 17.9585 15.0459 17.9864 14.5158C18.0248 13.9996 17.826 13.4834 17.4528 13.1137Z" fill="#FBBE07"/>
</svg>
