<svg width="60" height="54" viewBox="0 0 60 54" fill="none" xmlns="http://www.w3.org/2000/svg">
<path d="M56.2793 29.9758L51.4932 28.1298L49.053 25.6896C48.8963 25.5329 48.6944 25.448 48.4881 25.4348V23.4931C49.6382 22.2668 50.4569 20.714 50.7872 18.9646C50.9923 18.9739 51.1994 18.9573 51.4037 18.9156C52.5731 18.6762 53.4219 17.5912 53.4219 16.3358V15.6949C53.4219 14.9687 53.1274 14.3022 52.6478 13.8256C53.424 9.60445 52.7847 6.16452 50.7909 3.86213C48.8623 1.6352 45.7552 0.570785 41.8058 0.784419C38.1571 0.981646 35.8016 2.66048 35.0553 3.27466C34.6468 3.32318 33.951 3.46662 33.2467 3.8892C32.2705 4.4749 31.1069 5.70526 31.1069 8.24038C31.1069 10.452 31.4604 12.2984 31.7163 13.3459C30.8585 13.7638 30.2846 14.6694 30.2846 15.7048V16.3357C30.2846 17.591 31.1334 18.6761 32.3028 18.9155C32.5071 18.9573 32.7143 18.9737 32.9192 18.9645C33.2496 20.7139 34.0684 22.2667 35.2183 23.493V25.4347C35.0121 25.4479 34.8101 25.5328 34.6535 25.6894L32.2133 28.1296L27.4272 29.9757C27.0132 30.1353 26.6177 30.3424 26.2518 30.5909C25.8503 30.8638 25.746 31.4103 26.0187 31.8118C26.1888 32.0621 26.4652 32.1969 26.7465 32.1969C26.9165 32.1969 27.0883 32.1475 27.2396 32.0449C27.4947 31.8716 27.7707 31.7272 28.0598 31.6156L32.5016 29.9023L35.8977 34.9966C36.3186 35.6281 36.9934 36.0333 37.7487 36.108C37.8327 36.1163 37.9167 36.1205 38.0002 36.1205C38.4374 36.1205 38.8616 36.0055 39.2371 35.793L38.5083 52.3245C38.4868 52.8094 38.8627 53.2199 39.3477 53.2413C39.3608 53.2418 39.374 53.2421 39.3871 53.2421C39.8547 53.2421 40.2437 52.8735 40.2645 52.4018L40.9409 37.0571H42.7655L43.4419 52.4018C43.4626 52.8736 43.8517 53.2421 44.3193 53.2421C44.3324 53.2421 44.3455 53.2418 44.3587 53.2413C44.8436 53.2199 45.2194 52.8094 45.1981 52.3245L44.4693 35.793C44.8448 36.0055 45.2689 36.1205 45.7062 36.1205C45.7896 36.1205 45.8737 36.1163 45.9577 36.108C46.713 36.0333 47.3876 35.6281 47.8087 34.9966L51.2048 29.9023L55.6466 31.6156C56.2695 31.8559 56.8058 32.2392 57.2274 32.7174L54.1886 35.7562C53.0907 36.8542 52.4861 38.3139 52.4861 39.8664V52.3633C52.4861 52.8487 52.8796 53.2422 53.365 53.2422C53.8504 53.2422 54.2439 52.8487 54.2439 52.3633V39.8664C54.2439 38.7834 54.6657 37.7651 55.4315 36.9992L58.0985 34.3323C58.2056 34.7252 58.2556 35.1383 58.2388 35.5606L57.558 52.3277C57.5383 52.8127 57.9155 53.2218 58.4005 53.2416C58.4127 53.2421 58.4247 53.2423 58.4368 53.2423C58.9057 53.2423 59.2952 52.8719 59.3143 52.3991L59.9953 35.6317C60.095 33.1445 58.6017 30.8716 56.2793 29.9758ZM34.6398 18.6021C34.4848 17.7583 33.7033 17.1449 32.8599 17.2074C32.7933 17.2122 32.7246 17.2075 32.6554 17.1934C32.306 17.1219 32.0424 16.7532 32.0424 16.3358V15.7047C32.0424 15.297 32.3149 14.9297 32.6626 14.8687C32.956 14.8171 33.2371 14.9248 33.4148 15.1567C33.5762 15.3671 33.7915 15.5175 34.0372 15.5916C34.3972 15.7003 34.7941 15.6365 35.0993 15.4211C35.6489 15.0331 36.1338 14.559 36.5406 14.012C36.8303 13.6225 36.7492 13.0719 36.3598 12.7824C35.9701 12.4927 35.4197 12.5736 35.13 12.9632C34.9271 13.236 34.6979 13.4836 34.4456 13.7028C34.1669 13.4644 33.8414 13.2921 33.4925 13.1938C33.2667 12.3287 32.8647 10.4754 32.8647 8.24015C32.8647 6.89401 33.2797 5.94819 34.098 5.42905C34.7366 5.02393 35.4124 5.00776 35.4119 5.00764C35.6366 5.00764 35.8553 4.91916 36.0184 4.76482C36.0398 4.74467 38.2004 2.73958 41.9005 2.53954C45.2875 2.35673 47.9022 3.21173 49.4618 5.01268C51.0338 6.82792 51.5573 9.61477 50.9894 13.1029C50.754 13.0945 50.4963 13.1124 50.2397 13.1551L49.414 11.1721C49.2455 10.7675 48.8042 10.5491 48.3802 10.6596C48.2985 10.6809 40.182 12.7385 36.7787 8.50148C36.4748 8.12308 35.9217 8.06261 35.5431 8.3666C35.1647 8.67058 35.1042 9.22371 35.4083 9.60223C38.8836 13.929 45.7794 12.9878 48.0749 12.5288L48.7135 14.0622C48.9881 14.7213 49.6905 15.0813 50.3828 14.9181C50.667 14.8512 50.9385 14.8497 51.0405 14.8698C51.3959 14.9406 51.6639 15.2951 51.6639 15.6947V16.3357C51.6639 16.7532 51.4004 17.1218 51.0509 17.1933C50.9819 17.2075 50.9129 17.2122 50.8464 17.2073C50.0031 17.1458 49.2217 17.758 49.0666 18.6021C48.4272 22.0831 45.3935 24.6097 41.8532 24.6097C38.3128 24.6097 35.2792 22.0831 34.6398 18.6021ZM38.5388 34.1385C38.3159 34.3613 38.0568 34.3722 37.922 34.3589C37.7873 34.3456 37.5353 34.284 37.3604 34.0217L33.9391 28.8898L35.315 27.5139L40.5674 32.1098L38.5388 34.1385ZM41.0183 35.2994L41.0715 34.0915L41.8531 33.3099L42.6346 34.0915L42.6878 35.2994H41.0183ZM41.8532 30.899L36.9762 26.6316V24.9495C38.3941 25.8513 40.0718 26.3675 41.8532 26.3675C43.6346 26.3675 45.3123 25.8513 46.7303 24.9495V26.6316L41.8532 30.899ZM46.3462 34.0217C46.1712 34.2841 45.9191 34.3456 45.7846 34.3589C45.6497 34.3722 45.3906 34.3613 45.1677 34.1383L43.1391 32.1097L48.3914 27.5138L49.7674 28.8897L46.3462 34.0217Z" fill="#FBBE07"/>
<path d="M27.8726 34.582L23.5809 32.7087L21.2349 30.3628C21.0778 30.2055 20.8758 30.1211 20.6701 30.108V28.7253C22.6751 27.4077 24.1423 25.3123 24.6137 22.8154C24.8446 22.8257 25.0777 22.8035 25.3073 22.7493C26.432 22.4832 27.2482 21.4054 27.2482 20.1866V19.5458C27.2482 18.6554 26.8064 17.8545 26.1219 17.3845C26.3232 16.587 26.4259 15.771 26.4259 14.9496C26.4259 11.3083 24.4576 8.10114 21.4908 6.25965C21.4591 3.22062 18.8652 0.757324 15.6797 0.757324C12.4941 0.757324 9.90018 3.22062 9.86854 6.25965C6.90181 8.10114 4.93352 11.3085 4.93352 14.9496C4.93352 15.7685 5.03547 16.5822 5.23563 17.3775C4.55148 17.8451 4.11121 18.6498 4.11121 19.5554V20.1866C4.11121 21.4054 4.92742 22.4832 6.05208 22.7493C6.28177 22.8037 6.51473 22.8257 6.74571 22.8154C7.21716 25.3123 8.68447 27.4077 10.6894 28.7253V30.108C10.4838 30.1211 10.2817 30.2055 10.1246 30.3628L7.77861 32.7087L3.48707 34.582C1.3035 35.5352 -0.0957204 37.7749 0.00517846 40.1553L0.524204 52.4007C0.544243 52.8729 0.933424 53.2424 1.40171 53.2424C1.41425 53.2424 1.4269 53.2422 1.43956 53.2416C1.9246 53.2211 2.30101 52.8113 2.2805 52.3262L1.76136 40.0808C1.72796 39.2918 1.93304 38.5262 2.31859 37.8672L4.62543 40.6355C5.35446 41.5103 5.75583 42.6191 5.75583 43.7577V52.3635C5.75583 52.8489 6.14934 53.2424 6.63474 53.2424C7.12013 53.2424 7.51365 52.8489 7.51365 52.3635V43.7577C7.51365 42.2087 6.96743 40.7003 5.97579 39.5102L3.5234 36.5673C3.73187 36.4236 3.95347 36.2963 4.19031 36.193L7.93048 34.5603L10.5735 38.8504C10.8345 39.2741 11.266 39.5613 11.7575 39.6387C11.8458 39.6526 11.9344 39.6594 12.0227 39.6594C12.4245 39.6594 12.8159 39.517 13.1262 39.2522L14.8011 37.8231V52.3634C14.8011 52.8488 15.1946 53.2423 15.68 53.2423C16.1654 53.2423 16.5589 52.8488 16.5589 52.3634V37.8233L18.2336 39.2524C18.544 39.5172 18.9354 39.6596 19.3372 39.6596C19.4253 39.6596 19.514 39.6527 19.6024 39.6389C20.0939 39.5615 20.5254 39.2743 20.7864 38.8507L23.4294 34.5604L27.1696 36.1931C27.4063 36.2964 27.628 36.4237 27.8365 36.5674L25.3841 39.5103C24.3925 40.7003 23.8462 42.2088 23.8462 43.7578V52.3636C23.8462 52.849 24.2398 53.2425 24.7252 53.2425C25.2105 53.2425 25.6041 52.849 25.6041 52.3636V43.7578C25.6041 42.6192 26.0056 41.5104 26.7345 40.6356L29.0413 37.8674C29.4269 38.5263 29.6319 39.2919 29.5985 40.0809L29.0795 52.3264C29.059 52.8113 29.4354 53.2211 29.9205 53.2417C29.9331 53.2423 29.9456 53.2425 29.9583 53.2425C30.4266 53.2425 30.8158 52.8732 30.8358 52.4008L31.3548 40.1554C31.4556 37.775 30.0563 35.5352 27.8726 34.582ZM15.6799 2.51514C17.5497 2.51514 19.1273 3.708 19.5938 5.32426C18.3805 4.86629 17.0602 4.61445 15.6799 4.61445C14.2995 4.61445 12.9793 4.86629 11.7659 5.32426C12.2325 3.708 13.8099 2.51514 15.6799 2.51514ZM8.46638 22.4532C8.31146 21.609 7.52876 20.9959 6.68665 21.0583C6.612 21.0635 6.53489 21.0572 6.45708 21.0387C6.12192 20.9594 5.86915 20.593 5.86915 20.1866V19.5554C5.86915 19.1477 6.14161 18.7805 6.48931 18.7194C6.78274 18.6679 7.06364 18.7757 7.2413 19.0074C7.40267 19.2178 7.61794 19.3683 7.86392 19.4426C8.2238 19.5513 8.62095 19.4875 8.92588 19.272C9.46717 18.8899 9.94576 18.4242 10.3484 17.888C10.6399 17.4999 10.5615 16.9488 10.1733 16.6575C9.7851 16.3661 9.2342 16.4445 8.94275 16.8326C8.74342 17.098 8.519 17.3393 8.2722 17.5536C7.89615 17.2321 7.43501 17.0307 6.94587 16.9697C6.77747 16.3077 6.69134 15.6307 6.69134 14.9497C6.69134 10.2203 10.7235 6.37239 15.6799 6.37239C20.6361 6.37239 24.6683 10.2201 24.6683 14.9497C24.6683 15.6294 24.5827 16.305 24.4148 16.9658C24.1835 16.9842 23.9484 17.0221 23.7308 17.0786L23.0701 16.5353C22.7381 16.2622 22.3202 16.1256 21.8973 16.1508C20.6054 16.2271 13.9892 16.4018 10.5948 12.3394C10.2835 11.9669 9.72932 11.9173 9.35678 12.2285C8.98424 12.5398 8.93467 13.0941 9.24592 13.4665C10.9201 15.47 13.3755 16.8248 16.5439 17.4933C18.9698 18.005 21.1263 17.9554 21.9712 17.9072L23.002 18.7548C23.2857 18.9881 23.6836 19.0211 24.0013 18.8361C24.1503 18.7549 24.6496 18.6774 24.8674 18.7208C25.2229 18.7915 25.4907 19.1461 25.4907 19.5458V20.1866C25.4907 20.5931 25.238 20.9595 24.9028 21.0387C24.8251 21.0571 24.7479 21.0638 24.6732 21.0581C23.8316 20.997 23.0484 21.609 22.8934 22.453C22.254 25.9341 19.2204 28.4607 15.68 28.4607C12.1395 28.4607 9.10576 25.9341 8.46638 22.4532ZM12.0355 37.8723L9.39193 33.5813L10.7462 32.2271L14.3858 35.8667L12.0355 37.8723ZM15.6799 34.6748L12.4474 31.4423V29.624C13.4565 30.0081 14.5469 30.2185 15.6799 30.2185C16.8129 30.2185 17.9033 30.0081 18.9124 29.6241V31.4423L15.6799 34.6748ZM19.3243 37.8723L16.974 35.8667L20.6136 32.2271L21.9678 33.5813L19.3243 37.8723Z" fill="#FBBE07"/>
</svg>
