<svg width="21" height="21" viewBox="0 0 21 21" fill="none" xmlns="http://www.w3.org/2000/svg">
<path d="M20.3608 15.2993L17.655 12.5935C17.1911 12.1296 16.5482 11.9017 15.8931 11.9709C15.238 12.0401 14.6561 12.3982 14.298 12.9475L13.6145 14.0013C13.5616 14.0827 13.4842 14.1356 13.3907 14.1519C13.2971 14.1722 13.1994 14.1519 13.118 14.0949C11.9421 13.2771 10.8069 12.3208 9.73671 11.2507C8.66657 10.1806 7.71036 9.04124 6.89249 7.86938C6.8396 7.788 6.81925 7.69034 6.8396 7.59676C6.85994 7.50317 6.91284 7.42586 6.99422 7.37296L8.04809 6.68937C8.60147 6.3313 8.95954 5.74944 9.02871 5.0984C9.09788 4.4433 8.87002 3.8004 8.40616 3.33654L5.70435 0.634733C5.2649 0.199352 4.66269 -0.03258 4.04827 0.00404086C3.42979 0.0365927 2.85606 0.337697 2.47358 0.817837C1.13081 2.49833 -0.561885 5.00889 0.186809 7.39331C1.08605 10.2579 2.88861 13.0939 5.39918 15.6004C6.94946 17.1548 8.62995 18.4365 10.3878 19.4131C10.5261 19.4904 10.6848 19.5067 10.8353 19.466C10.9859 19.4253 11.112 19.3236 11.1853 19.1893C11.2626 19.0509 11.2789 18.8922 11.2382 18.7417C11.1975 18.5911 11.0958 18.465 10.9615 18.3918C9.3054 17.4722 7.71443 16.2555 6.23332 14.7744C3.84889 12.39 2.14806 9.7167 1.30578 7.03931C0.723914 5.19606 2.21723 3.02322 3.39317 1.55025C3.56813 1.33053 3.83262 1.19218 4.11338 1.17591C4.39414 1.15963 4.67083 1.26542 4.87021 1.4648L7.57608 4.17068C7.78767 4.38226 7.89346 4.6793 7.86091 4.97633C7.82836 5.27337 7.6656 5.54192 7.41332 5.70468L6.35946 6.38827C6.00952 6.61613 5.76945 6.96607 5.68808 7.37296C5.6067 7.78393 5.69621 8.19897 5.93628 8.54483C6.79891 9.7818 7.79988 10.9699 8.91071 12.0848C10.0134 13.1875 11.2056 14.1885 12.4507 15.0593C12.7925 15.2993 13.2076 15.3889 13.6185 15.3075C14.0295 15.2261 14.3794 14.9901 14.6073 14.6361L15.2909 13.5822C15.4536 13.3299 15.7222 13.1672 16.0192 13.1346C16.3203 13.1021 16.6133 13.2079 16.8249 13.4195L19.5308 16.1253C19.7301 16.3247 19.8359 16.6014 19.8197 16.8822C19.8034 17.1629 19.6691 17.4274 19.4453 17.6024C17.9723 18.7783 15.7995 20.2716 13.9563 19.6898C13.6999 19.6084 13.3662 19.4985 13.0367 19.3642C12.7356 19.2462 12.3938 19.3968 12.2758 19.6979C12.1578 19.999 12.3083 20.3408 12.6094 20.4588C12.9756 20.6012 13.3011 20.7151 13.5982 20.8047C13.9766 20.9267 14.3876 20.9878 14.8148 20.9878C16.829 20.9878 18.835 19.5758 20.1696 18.5179C20.6538 18.1313 20.9508 17.5536 20.9834 16.9351C21.0281 16.3329 20.7962 15.7306 20.3608 15.2993Z" fill="#FBBE07"/>
</svg>
