<svg width="57" height="57" viewBox="0 0 57 57" fill="none" xmlns="http://www.w3.org/2000/svg">
<path d="M55.2188 9.79688V4.45312C55.2188 4.21692 55.1249 3.99038 54.9579 3.82336C54.7909 3.65633 54.5644 3.5625 54.3281 3.5625H9.7969C9.56069 3.5625 9.33416 3.65633 9.16713 3.82336C9.00011 3.99038 8.90627 4.21692 8.90627 4.45312V8.90625H8.06018C7.33991 8.90773 6.64225 9.15794 6.0852 9.61455C5.52815 10.0712 5.14591 10.7062 5.00311 11.4121L3.7579 17.6378L5.50464 17.9872L6.74974 11.7615C6.81097 11.4589 6.97484 11.1867 7.21362 10.991C7.45241 10.7953 7.75145 10.6881 8.06018 10.6875H8.83948V28.2773C8.84009 28.8086 9.05142 29.318 9.42709 29.6936C9.80276 30.0693 10.3121 30.2806 10.8434 30.2812H12.4688C12.6023 30.2813 12.7342 30.2513 12.8545 30.1935C12.9749 30.1357 13.0808 30.0515 13.1642 29.9473L19.7624 21.6995L20.1345 21.9654C21.3451 22.8284 22.1768 24.1245 22.4571 25.5846C22.7373 27.0447 22.4445 28.5566 21.6394 29.8065C21.6361 29.8117 21.6329 29.8169 21.6297 29.822L16.1635 38.7215C16.0772 38.8616 16.0315 39.0229 16.0313 39.1875V55.2188H17.8125V46.5686C18.5894 47.0978 19.4575 47.4786 20.3731 47.6915C22.0668 48.082 23.8432 47.8788 25.4051 47.1161L25.8051 46.9203C26.0172 46.8166 26.1795 46.6328 26.2561 46.4094C26.3327 46.186 26.3175 45.9413 26.2138 45.7291L25.4614 44.191C27.0699 44.5019 28.7359 44.278 30.2053 43.5537L30.6055 43.358C30.8176 43.2542 30.9798 43.0704 31.0565 42.847C31.1331 42.6236 31.1179 42.3789 31.0141 42.1668L29.8852 39.8586L45.4851 44.2499C45.7384 44.3213 46.0033 44.342 46.2646 44.311C46.5259 44.2799 46.7785 44.1977 47.008 44.069C47.2375 43.9403 47.4394 43.7676 47.6022 43.5609C47.765 43.3541 47.8854 43.1173 47.9566 42.864L51.4987 30.2812H54.3281C54.5644 30.2812 54.7909 30.1874 54.9579 30.0204C55.1249 29.8534 55.2188 29.6268 55.2188 29.3906V11.5781H53.4375V28.5H24.1198C24.2647 27.9172 24.3394 27.3192 24.3425 26.7188H47.3558C47.4983 26.7188 47.6387 26.6846 47.7652 26.619C47.8918 26.5535 48.0008 26.4586 48.083 26.3423C48.1653 26.2259 48.2184 26.0915 48.238 25.9504C48.2575 25.8092 48.2429 25.6654 48.1954 25.5311C48.0833 25.214 48.0632 24.8717 48.1375 24.5437C48.2118 24.2157 48.3775 23.9154 48.6153 23.6776C48.8531 23.4398 49.1534 23.2742 49.4814 23.2C49.8095 23.1257 50.1518 23.1458 50.4688 23.258C50.6032 23.3055 50.7469 23.32 50.8881 23.3005C51.0292 23.2809 51.1636 23.2277 51.2799 23.1454C51.3962 23.0632 51.4911 22.9542 51.5566 22.8277C51.6221 22.7011 51.6563 22.5607 51.6563 22.4183V10.5349C51.6563 10.3924 51.6221 10.252 51.5566 10.1255C51.4911 9.99892 51.3962 9.88994 51.2799 9.80768C51.1636 9.72541 51.0292 9.67225 50.8881 9.65267C50.7469 9.63308 50.6032 9.64764 50.4688 9.69512C50.2002 9.79013 49.9126 9.81928 49.6303 9.78013C49.348 9.74098 49.0793 9.63468 48.8466 9.47013C48.6139 9.30559 48.4241 9.08763 48.2931 8.83453C48.1621 8.58144 48.0937 8.30061 48.0938 8.01562C48.0938 7.77942 47.9999 7.55288 47.8329 7.38586C47.6659 7.21883 47.4394 7.125 47.2031 7.125H16.0313C15.7951 7.125 15.5685 7.21883 15.4015 7.38586C15.2345 7.55288 15.1406 7.77942 15.1406 8.01562C15.1401 8.48787 14.9522 8.94061 14.6183 9.27454C14.2844 9.60847 13.8316 9.79632 13.3594 9.79688C13.1232 9.79688 12.8967 9.89071 12.7296 10.0577C12.5626 10.2248 12.4688 10.4513 12.4688 10.6875V22.2656C12.4688 22.5018 12.5626 22.7284 12.7296 22.8954C12.8967 23.0624 13.1232 23.1562 13.3594 23.1562C13.7825 23.1567 14.1917 23.3075 14.5139 23.5817C14.8361 23.856 15.0503 24.2358 15.1184 24.6534L12.0407 28.5H10.8434C10.7843 28.5 10.7277 28.4765 10.6859 28.4348C10.6442 28.393 10.6207 28.3364 10.6207 28.2773V9.79688H10.6875V5.34375H53.4375V9.79688H55.2188ZM17.8125 44.2307V39.4392L18.8999 37.6691L20.0785 40.079C20.7261 41.4117 21.7531 42.5233 23.0305 43.2741L24.2146 45.6952C23.1238 46.1222 21.9297 46.2109 20.7878 45.9497C19.6459 45.6885 18.6091 45.0895 17.8125 44.2307ZM29.0151 42.1337C27.6597 42.6716 26.1512 42.6782 24.7911 42.1522C23.431 41.6262 22.3195 40.6063 21.6786 39.2964L20.6869 37.2688L27.5853 39.2107L29.0151 42.1337ZM46.2424 42.3807C46.2344 42.4089 46.221 42.4352 46.2029 42.4581C46.1848 42.4811 46.1624 42.5003 46.1369 42.5146C46.1114 42.5289 46.0833 42.538 46.0542 42.5414C46.0252 42.5448 45.9958 42.5425 45.9676 42.5346L20.3421 35.3212L21.5588 33.3403L41.6606 39.4715C41.7784 39.5074 41.9024 39.5185 42.0247 39.5041C42.147 39.4897 42.265 39.4501 42.3712 39.3877C42.4775 39.3254 42.5696 39.2417 42.6418 39.1419C42.7141 39.0421 42.7648 38.9285 42.7909 38.8081C42.8407 38.5795 42.9351 38.3629 43.0687 38.1708C43.2022 37.9786 43.3724 37.8147 43.5693 37.6883C43.7662 37.562 43.9861 37.4756 44.2164 37.4343C44.4468 37.3929 44.683 37.3974 44.9116 37.4473C45.1354 37.4961 45.3694 37.4567 45.5649 37.3372C45.7604 37.2178 45.9022 37.0275 45.9609 36.8061L47.6987 30.2812H49.6482L46.2424 42.3807ZM45.8553 30.2812L44.4319 35.6264C43.8016 35.6469 43.1879 35.8331 42.6525 36.1663C42.1171 36.4995 41.679 36.9679 41.3824 37.5244L22.5223 31.7718L23.1428 30.7616C23.244 30.6038 23.3387 30.4436 23.4268 30.2812H45.8553ZM14.25 21.4878V11.4653C14.8657 11.305 15.4274 10.9834 15.8773 10.5335C16.3272 10.0837 16.6489 9.52192 16.8092 8.90625H46.4252C46.6236 9.67049 47.07 10.3473 47.6942 10.8308C48.3185 11.3143 49.0854 11.5771 49.875 11.5781V21.375C48.9305 21.3761 48.025 21.7517 47.3571 22.4196C46.6893 23.0875 46.3136 23.993 46.3125 24.9375H24.1404C23.7206 23.1515 22.6646 21.5796 21.1698 20.5157L20.1114 19.7596C19.926 19.6271 19.6969 19.5707 19.4712 19.602C19.2454 19.6333 19.0403 19.75 18.898 19.928L16.3885 23.0647C15.9047 22.2839 15.139 21.7192 14.25 21.4878Z" fill="#FBBE07"/>
<path d="M3.58132 27.6033L5.14838 19.7685L3.40164 19.4192L1.79852 27.4348C1.7747 27.5541 1.77557 27.6771 1.80108 27.7961L4.45314 40.1726V55.2189H6.23439V40.0782C6.23436 40.0155 6.22772 39.953 6.21457 39.8917L3.58132 27.6033Z" fill="#FBBE07"/>
<path d="M32.0625 23.1562C33.2955 23.1562 34.5009 22.7906 35.5261 22.1056C36.5514 21.4205 37.3504 20.4468 37.8223 19.3077C38.2942 18.1685 38.4176 16.915 38.1771 15.7056C37.9365 14.4963 37.3428 13.3854 36.4709 12.5135C35.599 11.6416 34.4881 11.0478 33.2788 10.8073C32.0694 10.5667 30.8159 10.6902 29.6767 11.1621C28.5375 11.6339 27.5638 12.433 26.8788 13.4582C26.1938 14.4835 25.8281 15.6888 25.8281 16.9219C25.83 18.5748 26.4874 20.1594 27.6562 21.3282C28.825 22.497 30.4096 23.1544 32.0625 23.1562ZM32.0625 12.4688C32.9432 12.4688 33.8042 12.7299 34.5365 13.2192C35.2688 13.7086 35.8396 14.404 36.1766 15.2177C36.5137 16.0314 36.6019 16.9268 36.4301 17.7906C36.2582 18.6545 35.8341 19.4479 35.2113 20.0707C34.5885 20.6935 33.7951 21.1176 32.9313 21.2894C32.0674 21.4613 31.1721 21.3731 30.3584 21.036C29.5447 20.699 28.8492 20.1282 28.3599 19.3959C27.8705 18.6636 27.6094 17.8026 27.6094 16.9219C27.6107 15.7412 28.0803 14.6093 28.9151 13.7745C29.75 12.9397 30.8819 12.4701 32.0625 12.4688Z" fill="#FBBE07"/>
<path d="M48.0938 12.4688H42.75V14.25H48.0938V12.4688Z" fill="#FBBE07"/>
</svg>
