<svg width="19" height="19" viewBox="0 0 19 19" fill="none" xmlns="http://www.w3.org/2000/svg">
<g clip-path="url(#clip0_177_612)">
<path d="M16.2179 2.78214C14.4988 1.0631 12.1238 0 9.5 0C6.87619 0 4.50119 1.0631 2.78214 2.78214C1.0631 4.50119 0 6.87619 0 9.5C0 12.1238 1.0631 14.4988 2.78214 16.2179C4.50119 17.9369 6.87619 19 9.5 19C12.1238 19 14.4988 17.9369 16.2179 16.2179C17.9369 14.4988 19 12.1238 19 9.5C19 6.87619 17.9369 4.50119 16.2179 2.78214ZM15.4036 15.4036C13.8881 16.919 11.8071 17.8464 9.5 17.8464C7.19286 17.8464 5.1119 16.919 3.59643 15.4036C2.10357 13.8881 1.15357 11.8071 1.15357 9.5C1.15357 7.19286 2.10357 5.1119 3.59643 3.59643C5.1119 2.08095 7.19286 1.15357 9.5 1.15357C11.8071 1.15357 13.8881 2.08095 15.4036 3.59643C16.919 5.1119 17.8464 7.19286 17.8464 9.5C17.8464 11.8071 16.919 13.8881 15.4036 15.4036Z" fill="#FBBE07"/>
<path d="M14.2728 8.91185H10.0883V3.84518C10.0883 3.52851 9.83949 3.25708 9.5002 3.25708C9.18354 3.25708 8.91211 3.50589 8.91211 3.84518V9.49994C8.91211 9.81661 9.18354 10.088 9.5002 10.088H14.2728C14.5895 10.088 14.8609 9.83923 14.8609 9.49994C14.8609 9.18328 14.6121 8.91185 14.2728 8.91185Z" fill="#FBBE07"/>
</g>
<defs>
<clipPath id="clip0_177_612">
<rect width="19" height="19" fill="white"/>
</clipPath>
</defs>
</svg>
