<svg width="55" height="55" viewBox="0 0 55 55" fill="none" xmlns="http://www.w3.org/2000/svg">
<g clip-path="url(#clip0_62_13)">
<path d="M54.1923 25.2227C54.6384 25.2227 55 24.8611 55 24.415V16.6569C55 13.6877 52.5844 11.2722 49.6153 11.2722H47.9505V10.2033C47.9505 9.08158 47.0379 8.16903 45.9163 8.16903H44.4773C43.3556 8.16903 42.4431 9.08158 42.4431 10.2033V11.2722H38.3301V10.2033C38.3301 9.25216 37.6731 8.45376 36.7898 8.23214V6.44289C36.7898 4.05102 34.8438 2.10498 32.4519 2.10498H29.2209C28.7748 2.10498 28.4132 2.4666 28.4132 2.91264C28.4132 3.35869 28.7748 3.72031 29.2209 3.72031H32.4519C33.953 3.72031 35.1744 4.9416 35.1744 6.44289V8.16914H33.5591V6.44289C33.5591 5.8324 33.0624 5.33564 32.4519 5.33564H22.6555C22.045 5.33564 21.5483 5.8323 21.5483 6.44289V8.16914H19.9329V6.44289C19.9329 4.94171 21.1542 3.72031 22.6555 3.72031H25.7788C26.2249 3.72031 26.5865 3.35869 26.5865 2.91264C26.5865 2.4666 26.2249 2.10498 25.7788 2.10498H22.6555C20.2637 2.10498 18.3176 4.05091 18.3176 6.44289V8.23224C17.4342 8.45387 16.7772 9.25227 16.7772 10.2034V11.2723H12.6643V10.2034C12.6643 9.08169 11.7517 8.16914 10.63 8.16914H9.19144C8.06975 8.16914 7.1572 9.08169 7.1572 10.2034V11.2723H5.38475C2.41556 11.2723 0 13.6879 0 16.657V47.5106C0 50.4798 2.41556 52.8953 5.38475 52.8953H49.6154C52.5846 52.8953 55.0001 50.4798 55.0001 47.5106V27.8571C55.0001 27.411 54.6385 27.0494 54.1925 27.0494C53.7464 27.0494 53.3848 27.411 53.3848 27.8571V47.5106C53.3848 49.5891 51.6939 51.28 49.6154 51.28H43.9778V33.6701H44.1498C46.2425 33.6701 47.9448 31.9677 47.9448 29.8752V25.8928C47.9448 23.8002 46.2423 22.0978 44.1498 22.0978H43.9778V12.8876H49.6154C51.6939 12.8876 53.3848 14.5785 53.3848 16.657V24.4151C53.3847 24.8611 53.7463 25.2227 54.1923 25.2227ZM38.7321 22.0978C36.6395 22.0978 34.9372 23.8002 34.9372 25.8928V29.8752C34.9372 31.9678 36.6396 33.6701 38.7321 33.6701H38.9042V51.28H16.2036V45.4809L20.9468 43.7931C21.7868 43.4941 22.2269 42.5676 21.9281 41.7276L20.2981 37.1469C19.9993 36.307 19.0727 35.8667 18.2326 36.1657L16.2036 36.8877V33.6702H16.3757C18.4683 33.6702 20.1706 31.9678 20.1706 29.8753V25.893C20.1706 23.8004 18.4682 22.0979 16.3757 22.0979H16.2036V12.8877H38.9042V22.0979H38.7321V22.0978ZM11.13 45.5713L8.55726 46.4854L6.92825 41.9027L11.13 40.4075V45.5713ZM10.958 32.0548C9.75605 32.0548 8.77834 31.077 8.77834 29.8752V25.8928C8.77834 24.6909 9.75616 23.7131 10.958 23.7131H16.3756C17.5775 23.7131 18.5552 24.6909 18.5552 25.8928V29.8752C18.5552 31.0771 17.5774 32.0548 16.3756 32.0548H10.958ZM16.2036 38.6025L18.7764 37.6885L20.4053 42.2712L16.2036 43.7663V38.6025ZM32.0189 11.2723V10.2034C32.0189 9.97238 32.2069 9.78447 32.4379 9.78447H36.296C36.527 9.78447 36.7149 9.97238 36.7149 10.2034V11.2723H32.0189ZM31.9439 6.95097V8.23224C31.0605 8.45387 30.4036 9.25227 30.4036 10.2034V11.2723H24.7041V10.2034C24.7041 9.25227 24.0471 8.45387 23.1638 8.23224V6.95097H31.9439ZM18.3928 10.2034C18.3928 9.97238 18.5807 9.78447 18.8117 9.78447H22.6698C22.9008 9.78447 23.0888 9.97238 23.0888 10.2034V11.2723H18.3928V10.2034ZM8.77253 10.2034C8.77253 9.97238 8.96044 9.78447 9.19144 9.78447H10.6304C10.8614 9.78447 11.0493 9.97238 11.0493 10.2034V11.2723H8.77253V10.2034ZM1.61533 47.5106V16.657C1.61533 14.5785 3.30626 12.8876 5.38475 12.8876H7.96486H11.13V15.7543C11.13 16.2003 11.4917 16.562 11.9377 16.562C12.3838 16.562 12.7454 16.2003 12.7454 15.7543V12.8876H14.5883V22.0978H12.7454V19.1963C12.7454 18.7503 12.3838 18.3887 11.9377 18.3887C11.4917 18.3887 11.13 18.7503 11.13 19.1963V22.0978H10.958C8.86536 22.0978 7.16301 23.8002 7.16301 25.8928V29.8752C7.16301 31.9678 8.86546 33.6701 10.958 33.6701H11.13V38.693L6.3869 40.3808C5.97995 40.5256 5.65376 40.8202 5.46843 41.2104C5.28309 41.6005 5.2608 42.0395 5.40564 42.4463L7.03562 47.0269C7.18046 47.4338 7.4751 47.76 7.86514 47.9453C8.08537 48.0499 8.3211 48.1025 8.55791 48.1025C8.74055 48.1025 8.92394 48.0711 9.10109 48.0081L11.1303 47.286V51.2799H5.38475C3.30626 51.28 1.61533 49.589 1.61533 47.5106ZM12.7454 51.28V33.6701H14.5883V51.28H12.7454ZM42.3623 51.28H40.5195V33.6701H42.3623V51.28ZM46.3294 25.8927V29.8751C46.3294 31.077 45.3515 32.0547 44.1497 32.0547H38.7321C37.5302 32.0547 36.5525 31.0769 36.5525 29.8751V25.8927C36.5525 24.6908 37.5303 23.713 38.7321 23.713H44.1497C45.3517 23.7131 46.3294 24.6909 46.3294 25.8927ZM40.5196 22.0978V12.8876H42.3623V22.0978H40.5196ZM44.0585 11.2723V10.2034C44.0585 9.97238 44.2464 9.78447 44.4774 9.78447H45.9164C46.1474 9.78447 46.3353 9.97238 46.3353 10.2034V11.2723H44.0585Z" fill="#FBBE07"/>
<path d="M16.94 29.6317V26.136C16.94 25.69 16.5783 25.3284 16.1323 25.3284H11.2013C10.7553 25.3284 10.3937 25.69 10.3937 26.136V29.6317C10.3937 30.0777 10.7553 30.4394 11.2013 30.4394H16.1323C16.5783 30.4394 16.94 30.0777 16.94 29.6317ZM15.3246 28.824H12.009V26.9437H15.3246V28.824Z" fill="#FBBE07"/>
<path d="M38.1678 26.136V29.6317C38.1678 30.0777 38.5295 30.4394 38.9755 30.4394H43.9065C44.3525 30.4394 44.7141 30.0777 44.7141 29.6317V26.136C44.7141 25.69 44.3525 25.3284 43.9065 25.3284H38.9755C38.5295 25.3284 38.1678 25.69 38.1678 26.136ZM39.7832 26.9437H43.0988V28.824H39.7832V26.9437Z" fill="#FBBE07"/>
<path d="M34.1112 20.657C34.1639 20.2195 33.9675 19.798 33.5985 19.5571L27.7716 15.7502C27.4804 15.5599 27.1234 15.5116 26.7922 15.6176C26.4609 15.7236 26.1983 15.9702 26.0717 16.2942V16.2943L23.4159 23.0925C23.2503 23.5165 23.344 23.983 23.6604 24.3102C23.8825 24.54 24.1773 24.6624 24.4817 24.6624C24.6107 24.6624 24.7415 24.6404 24.8693 24.5954L33.352 21.6042C33.7677 21.4574 34.0586 21.0946 34.1112 20.657ZM25.2901 22.7339L27.3678 17.4157L31.9262 20.3938L25.2901 22.7339Z" fill="#FBBE07"/>
<path d="M27.0783 42.9901C27.0783 45.631 29.2269 47.7798 31.8679 47.7798C34.509 47.7798 36.6576 45.6312 36.6576 42.9901C36.6576 40.349 34.509 38.2004 31.8679 38.2004C29.2269 38.2004 27.0783 40.349 27.0783 42.9901ZM35.0422 42.9901C35.0422 44.7404 33.6182 46.1644 31.8678 46.1644C30.1175 46.1644 28.6935 44.7405 28.6935 42.9901C28.6935 41.2397 30.1175 39.8158 31.8678 39.8158C33.6182 39.8158 35.0422 41.2397 35.0422 42.9901Z" fill="#FBBE07"/>
</g>
<defs>
<clipPath id="clip0_62_13">
<rect width="55" height="55" fill="white"/>
</clipPath>
</defs>
</svg>
