<svg width="10" height="20" viewBox="0 0 10 20" fill="none" xmlns="http://www.w3.org/2000/svg">
<path d="M0.503422 9.98627C0.502825 9.68083 0.609332 9.38483 0.804457 9.14964L7.34869 1.30623C7.57085 1.03927 7.8901 0.871386 8.23619 0.839516C8.58229 0.807646 8.92688 0.914397 9.19417 1.13629C9.46146 1.35817 9.62954 1.67702 9.66145 2.02269C9.69336 2.36836 9.58648 2.71253 9.36432 2.97949L3.50068 9.98627L9.1549 16.9931C9.26362 17.1268 9.34481 17.2806 9.39381 17.4458C9.4428 17.6109 9.45863 17.7841 9.44038 17.9554C9.42214 18.1267 9.37018 18.2927 9.2875 18.4439C9.20481 18.595 9.09303 18.7284 8.95858 18.8363C8.824 18.956 8.66612 19.0466 8.49482 19.1026C8.32353 19.1585 8.14251 19.1785 7.96312 19.1614C7.78372 19.1442 7.60982 19.0902 7.45229 19.0027C7.29476 18.9153 7.15701 18.7963 7.04766 18.6532L0.725926 10.8098C0.561645 10.5679 0.483304 10.2779 0.503422 9.98627Z" fill="white"/>
</svg>
